<?xml version="1.0" encoding="utf-8"?>
<!-- Generator: Adobe Illustrator 16.0.3, SVG Export Plug-In . SVG Version: 6.00 Build 0)  -->
<!DOCTYPE svg PUBLIC "-//W3C//DTD SVG 1.1//EN" "http://www.w3.org/Graphics/SVG/1.1/DTD/svg11.dtd">
<svg version="1.1" xmlns="http://www.w3.org/2000/svg" xmlns:xlink="http://www.w3.org/1999/xlink"  id="svg" width="1280" height="1024" viewBox="0 0 1280 1024" fill="gray"><path d="M514.1435357090086,211.35873230011202L538.8205309169134,222.8642698477197L541.8967997811269,223.69936369513744L543.6328021108638,235.8015363937884L547.1389956423081,242.09230467386078L540.457344696857,245.16903826672933L541.1723848067923,246.6875912330288L535.9944111165823,250.06874166917987L532.3161221195478,249.28603834091336L517.4127793144435,242.96203472075285L519.2689584959298,238.6907571577176L496.9569728861097,229.18913207750302L498.60711360385176,225.30357301153708L506.1176581636537,207.56752902106382Z"></path><path d="M751.9049057605444,200.87581341929035L754.9805204696022,202.81736247014487L759.6304279975593,203.7130777776183L762.2213521624217,207.01206909673056L768.3063928728225,211.07326319316053L771.0923481148202,214.54671966671594L780.5878266884247,217.14367375680013L784.5492305113003,220.16918147416436L792.6546327498509,221.20148490555584L801.8443013305077,230.59202854076284L807.8998667643173,230.4541969014099L812.10954773915,231.7659783186391L815.2940205940977,235.58721292382688L820.5885940934531,248.1005727800657L827.0910879268777,249.56485589340446L831.3616383402841,248.20156483046594L847.1086111913901,247.12939625047147L852.8733708788641,248.64833064534469L855.8571623136522,251.5500925174274L858.6554465224035,258.7264041644521L861.7093897461891,262.25178386835614L866.4178671422414,262.4453571974591L875.1797063720878,264.06906275756774L878.6676678591175,265.45098550154944L884.7718521787319,273.20882494875696L891.9642081670463,270.81852291489486L900.8003859737655,274.16920677683083L904.6963765599066,273.7821962737653L912.4318858948536,274.91263906488894L918.666567047243,272.963275775488L924.3784435517155,276.59680095824297L929.2214183347533,282.4058850957954L933.4332718339283,282.0314771559206L940.0005906472215,286.6415982687322L945.7414261768572,288.38357307817205L950.0013412935659,290.90177072797087L953.2377642786596,294.69365145717165L955.5580134951742,300.71098212178913L961.780391316046,311.2088213560346L962.6867081995588,315.2765721100732L962.2741659138119,323.1613213432429L961.1787744883914,326.3349707359157L962.9813052699901,328.7502179737785L970.980161524727,330.84220119705424L974.0355136397993,332.6427805941785L979.3939884155989,339.32457237990457L983.296118754195,348.67505882986006L982.5967846974963,358.60650773567613L991.6768876709975,367.422272386495L991.5033179442398,371.6596862660954L988.6547649856657,376.8539292603673L980.5090571187902,377.1680725472688L973.480146082351,374.24563125439454L966.0244280948536,370.0925923620525L947.0301085639512,362.10759906386374L938.7608591996832,359.6530145557772L919.4635197119787,357.93917008751305L906.4318370026303,357.2535238661512L895.7815333734034,358.8952965463395L889.8685903903097,358.90801922083483L875.1771799282869,356.9269125877763L863.5238606662024,352.2871873396507L857.7247251189547,349.261725777993L853.1752148497617,346.4122662883019L850.5586677297251,343.2334259727213L848.6844720670488,338.69363991505816L839.0330474983202,334.5130019719072L824.3073196103796,334.3582263881399L809.9757155791158,337.0156871729123L797.3552655638196,339.86334008694394L787.5173691241071,341.60906081297435L768.9951014349936,347.0627121954749L749.157539027743,355.7039120651898L732.3088957376312,363.4859921639436L730.9700776033569,359.7337593935081L728.6140438620932,344.30869940132834L723.0758528962033,332.14097196262446L716.1712562645553,310.641945196694L713.3748976510251,303.98456280946266L709.1083902412793,297.4389986786118L701.3198468511691,290.6905646214436L689.9869428208331,285.271320426662L681.3233372978866,282.77190552910906L675.4380722487113,282.25314758211607L673.157354019233,270.84762284255703L673.513747549383,266.66830024454976L678.4934573881328,261.03037530736765L679.8313926092815,256.8280776408792L679.0949857736705,254.12934843226685L664.7077989261597,235.1917339032516L666.5525995355565,230.14380999174318L673.0248858999694,231.52884683781303L682.8176718085306,229.0524381226569L685.6743209528504,231.25486219016602L689.905602840241,230.16284032416297L696.2440823145444,225.49050439413986L697.1690544524463,222.6350942522986L709.619658810203,216.6206456212385L723.2309346770635,212.21323509709327L729.9929598275339,208.51017522072652L739.4002524123061,206.1845441608457L746.6319921348477,205.35820505631273Z"></path><path d="M436.3856352654984,60.35138796889805L442.1510910295183,56.746715981775196L454.85760185925756,42.32820064938278L467.6290046980139,45.24542832458974L481.3427058850648,49.22684317617677L499.6308788281167,55.90124536622898L513.3493923819624,61.93145571774221L526.5115765234223,63.16186479610042L533.2984603928635,65.26149173092563L545.735746408347,72.17286205056007L550.8747848328203,74.21207222223165L557.6173996907892,79.01249634241685L559.5554792126641,81.34469145303592L559.0909115492832,88.37197764863959L547.6126678672154,101.73994596581906L544.8504285332747,107.53809160605306L544.171407813672,112.25133305412601L546.2292200915981,116.88908730490948L551.570816070307,121.08767697721487L561.6442604814656,124.15928868687479L566.3355867419159,127.28554363700096L570.1709880692651,133.0762661753397L570.0522128705634,134.93443869438488L563.6633989749243,146.1998697287927L555.9557471724693,152.90715193294454L553.6367905830266,161.24083375078044L550.247691548313,168.1995910940459L538.8760616332293,169.24666392651852L534.5782115588663,172.43854741120595L530.0961026269943,182.3224362092733L526.3216938631376,181.28575740687666L530.5743346348172,173.82674789894372L520.6041550276568,168.58912215635064L516.27793976455,173.89258838124806L511.3457727282075,172.83663743129L511.8984880776843,164.11582919536158L506.43299313855823,165.99980586694437L498.2304074153071,156.20472811668878L488.8584624977084,147.9689186492178L479.4785985047929,142.17856782086892L474.8934679281665,137.85457480838522L483.3709481105907,125.32376962975832L460.01297191588674,112.83188485071878L464.32783484563697,100.23300826235209L468.3730987594463,93.5795819334162L467.09860171866603,91.92524823913118L458.26676639704965,85.34384543963824Z"></path><path d="M857.7247251189547,349.261725777993L863.5238606662024,352.2871873396507L875.1771799282869,356.9269125877763L889.8685903903097,358.90801922083483L895.7815333734034,358.8952965463395L906.4318370026303,357.2535238661512L919.4635197119787,357.93917008751305L938.7608591996832,359.6530145557772L947.0301085639512,362.10759906386374L966.0244280948536,370.0925923620525L973.480146082351,374.24563125439454L980.5090571187902,377.1680725472688L988.6547649856657,376.8539292603673L986.7911253006896,382.69437419166206L989.1511305680033,387.06632372897L988.6969744191738,394.259472869162L989.8283605799079,396.0333766777476L997.787465835223,392.9681140355533L1002.7403978441143,392.9882513935154L1007.5843757252442,394.8653188260214L1020.6742092391942,397.6170903426828L1024.4968771636486,399.445011036034L1027.66814356728,408.2799882264226L1031.3195468398044,414.32937477031373L1035.0760218342766,416.3579602325626L1036.5396838951856,421.47380334159243L1039.4875337508274,427.8134503486217L1039.6447855677688,436.8611631965032L1044.9800231388072,440.30408886267105L1048.4629883625312,445.0424210863712L1052.0841894439654,447.14036229788326L1056.5190416343976,452.2855184151558L1056.1768341292627,459.6987497146183L1063.447824960691,460.9464901452011L1068.9679885882651,469.2674464225129L1073.6536902920343,478.58381349331466L1075.3166951528983,485.6805458320887L1082.012354334467,497.9823287143954L1093.1062321224017,493.84510630657314L1098.144274098333,496.54387568638776L1111.6593095613644,496.9129753225134L1121.9375599770574,503.157926866872L1130.5931537604192,506.89079968928127L1133.4727771204198,507.2965193447599L1140.341518202331,513.0110758646042L1151.1502947227564,513.9121624683612L1154.241437319084,515.6183306575113L1160.4019165913342,515.3163656739926L1163.2856946953107,513.1343945419067L1169.384942542063,514.1064822906628L1173.1206310760463,512.9868201075005L1175.5816314344993,509.9289778418315L1181.6777338184183,509.52326849789824L1186.4574573333375,513.4960499000154L1194.346301849233,513.3600129385595L1200.2449127610307,516.6705731346156L1203.1050727482652,522.7643351168372L1209.3565510414774,524.8737317100749L1213.5085104539758,530.9676343575702L1216.5658613005653,533.1837927589659L1225.0031739086844,533.9464612363081L1231.2649672820698,536.32896155052L1226.9673990462907,544.8586156223901L1225.8080379582243,554.0865962629032L1226.1015236588428,560.5953137229662L1224.5434638514416,569.0771648749651L1222.974201074103,572.4162566788727L1216.7557606238406,577.4824711837282L1212.7634079413256,583.647585510189L1207.332349859178,588.1077480049571L1204.512996898382,591.5717866047926L1199.6987805058016,602.6062656424183L1194.4298591408879,610.8613372008549L1190.6527072389144,618.7185314622184L1188.1117592789233,622.364761109231L1183.854905480519,624.1958808473137L1175.500047012698,631.8558100528899L1173.0647194477497,639.4394262433634L1166.9908148285467,645.1058783075714L1159.222290873411,658.8797035807511L1153.112841646769,661.9014670109318L1149.5420396787813,666.8642076675897L1143.2798808502266,666.4414408340817L1134.8111886323895,657.2001101010537L1130.8632915717317,651.7429722661327L1122.9555619873572,642.3648126809276L1116.0368185376283,631.8065369326796L1104.5036677579628,616.3852264940215L1100.1349771319656,611.7298025167256L1084.6255582972663,598.1229402831814L1074.3285333469976,591.4836759046593L1066.66065478581,585.217988690536L1056.036805830081,578.6834945940354L1042.3787885686615,577.0533700127562L1038.2483878456987,574.423338342458L1026.9182475372218,563.7808113411011L1021.0820160638541,556.3333297043573L1014.8685748928692,546.6269390509406L1009.5049893239047,540.8741530251282L1002.2319126758957,537.6380289569206L986.4906846415251,535.3976157680736L972.2069877369795,532.8296166311193L966.7237481275806,533.7833950056229L956.390490334481,532.428374874813L951.2303832336329,530.8373833448859L948.741522703669,528.722191201814L944.6947816633619,521.4750360392791L940.318866756279,516.6595580779831L934.5019785464974,515.1171292894578L928.5378869916312,515.1688517415314L924.4521180965239,511.7379771817068L919.0722759164637,502.8206768966047L915.8604282283923,495.3197835267638L913.0629397726152,482.68254296144005L906.5818775827065,477.5135072579433L903.9387689501746,473.7351315972628L893.6920819650404,465.6377648723137L885.2699694880284,460.6660958241846L893.0753143164329,450.56348993600113L888.9216928257374,445.34614249138394L883.47137517191,441.1926141328877L871.9719718080014,434.98438195267227L869.3835772534367,432.04073150482145L866.7537591414293,424.04059710662114L862.3304752248805,417.137683711946L855.1605536764255,403.55484689751756L845.946882222197,395.86833352033864L838.4144584549358,391.45060276190634L837.1141213873634,387.2067690778931L834.1477230410092,386.00402921185014L828.2098828855669,386.3544536496047L827.0912303542718,384.82339359269827L833.3470628947252,372.7033020987292L837.5550865413388,362.2948895949521L844.5615356928902,354.91954419133253Z"></path><path d="M564.9402739248471,355.7440155328077L572.9603186636232,370.0283001451171L580.6374614797533,377.8905271240801L586.0630314758746,382.4065644183429L595.5028518347535,384.415439303295L604.7633188198088,388.39459157487727L607.958478694316,392.2661277708539L606.71949798672,404.67831085063517L612.6354727325961,411.767604984605L618.0988421955844,416.18721241343883L631.9711908964673,418.5309027461917L626.6289305839455,430.6478687629278L628.5585017177509,433.8875744198449L614.9292242234806,448.04949657194084L617.262003418291,455.43975335301366L617.6375281168148,460.9546404326393L633.6426073338371,476.6684101190476L629.35510174511,489.625913568394L632.4651502949419,494.6675232817943L630.1810046886094,497.34865572603303L632.5669660206186,502.3529902061855L629.9884750982746,504.97498073469615L640.3366180086741,517.6519934908138L633.1627322479617,524.98817987644L601.8262187904911,490.4249566834769L597.1447078710189,494.7421246151789L585.0430179166142,520.9258722328232L579.9405799763044,527.2091874275357L564.0445225945441,533.2018000718963L557.9177230300847,527.9184640957974L549.4304480153369,519.5451299017295L547.4517621013802,512.1551708061597L541.5402476130985,493.2245230312983L539.1202224947046,480.2697828456003L530.0408287924947,453.43620662676403L523.8568813704187,425.8233816376014L519.9188884699252,413.4387822255376L516.8102481323294,399.32171115573146L510.2208834817866,378.0079263477528L505.26980310236104,359.92859133085585L504.39970307727344,355.09354475548025L509.6128792932723,358.6433110827347L513.0311291661346,358.97826424852246L520.2006973230746,355.9375746570877L525.318800526089,352.69630544944084L533.3419223417295,349.43575308832806L538.7425444229739,349.62851446375134L549.1426002922235,353.86128161736997Z"></path><path d="M857.7247251189547,349.261725777993L844.5615356928902,354.91954419133253L837.5550865413388,362.2948895949521L833.3470628947252,372.7033020987292L827.0912303542718,384.82339359269827L828.2098828855669,386.3544536496047L834.1477230410092,386.00402921185014L837.1141213873634,387.2067690778931L838.4144584549358,391.45060276190634L845.946882222197,395.86833352033864L855.1605536764255,403.55484689751756L862.3304752248805,417.137683711946L866.7537591414293,424.04059710662114L869.3835772534367,432.04073150482145L871.9719718080014,434.98438195267227L883.47137517191,441.1926141328877L888.9216928257374,445.34614249138394L893.0753143164329,450.56348993600113L885.2699694880284,460.6660958241846L877.0746823881054,471.91458123142365L869.2578863790259,484.2444123979658L861.9614976558369,494.25102790558594L848.1294192973292,505.9392305589863L845.4601471794304,506.4168911096349L840.1846380456118,498.84611019230215L837.5565742991166,496.26288182649296L826.8773340380285,490.48190027385135L822.9620987342205,482.93357034999644L820.2917917757295,482.2397750444361L813.2170028805267,483.4557855006424L796.0809443516191,480.7212900775485L785.3164023855934,473.91245567589067L781.792095788056,474.8188756573072L791.2303216250148,488.3830636262137L829.6848921530182,540.9700171539444L831.8800109296571,545.2811719171004L823.3316656912211,550.1994437424582L810.5680362585699,564.5629445533268L804.7321051717736,559.1765201622329L800.4627860113978,553.1495574766013L795.9170844834298,548.2375243797433L790.530670217122,546.1226127927075L787.6078936639242,543.5483469267492L784.6923622769536,537.6604424039833L781.6026143969502,534.9328646917129L781.1426146597369,519.9645947548561L779.9821008081781,515.9337398691277L772.8324909381336,509.38705235766247L771.4115553164156,506.34538260955014L770.9467054376146,503.35983487716294L772.2014500289224,498.4061185932369L776.6241678553633,492.44180717878044L773.6412395796506,489.4088762710453L772.6041957479902,474.3881523733435L773.0249585511629,471.0819722767337L775.4693016324891,467.6421539322182L772.3119278040249,464.27111282976693L765.846522507607,462.7949030189484L763.5650705025764,468.7200364294986L760.7230940035079,457.8877821422939L754.8929802665953,455.3749517034739L753.5426300494,444.5874515706091L750.5512034136336,439.9484200431034L760.0349813136272,439.84751747502014L762.3155192658305,417.3757199480606L765.8333758471999,404.8479050852184L765.3384702006588,402.3883099343511L749.3485439150827,401.4167889751552L741.284447311773,399.5059625690337L741.2269208045909,392.74694206152344L745.5341869860422,381.8676893954689L746.0037753415527,376.82555903989123L742.0739480685443,372.1881260028458L735.8663823038805,367.49136767032905L732.3088957376312,363.4859921639436L749.157539027743,355.7039120651898L768.9951014349936,347.0627121954749L787.5173691241071,341.60906081297435L797.3552655638196,339.86334008694394L809.9757155791158,337.0156871729123L824.3073196103796,334.3582263881399L839.0330474983202,334.5130019719072L848.6844720670488,338.69363991505816L850.5586677297251,343.2334259727213L853.1752148497617,346.4122662883019Z"></path><path d="M504.39970307727344,355.09354475548025L505.26980310236104,359.92859133085585L510.2208834817866,378.0079263477528L516.8102481323294,399.32171115573146L519.9188884699252,413.4387822255376L523.8568813704187,425.8233816376014L530.0408287924947,453.43620662676403L539.1202224947046,480.2697828456003L541.5402476130985,493.2245230312983L547.4517621013802,512.1551708061597L549.4304480153369,519.5451299017295L545.8549246859038,518.8074667297478L541.1020274066832,515.8966254424886L538.0883026508382,517.227119562187L532.2433321464341,517.0842576005962L529.0915610844968,512.728358338587L517.6977293331875,511.1475110469037L508.6637195558287,507.59613407883444L503.887393107987,506.4453634136007L499.21704406593926,503.3341942950792L492.46572448313236,497.42962956265546L479.683429089142,496.1520358596754L476.2437983157579,493.0153782751877L475.1637220790144,489.9906692239747L477.1191480177222,485.1126069321763L476.3599761966616,482.74838495181757L470.54359647235833,477.4014978321793L463.98325644317083,476.1286707633699L459.51808278181124,474.2779844212346L456.47508210199885,467.32808977519744L456.50514359993394,460.73696175889927L453.6083054683404,454.8581785383576L450.1082637531217,452.9473717729561L443.0520443847636,452.1654711498122L437.6342009722721,447.1270459642983L435.2492747072829,429.8924159646558L435.40883076936007,422.32123239609064L437.60872760717757,399.614107117377L434.3465828951448,397.37942603812553L424.6299568830291,385.75483725583763L418.1053454329958,378.9809506671154L415.42592079367023,373.4984258857148L415.555973380222,364.99305810261285L413.0677404650487,357.855108313699L411.2239051038632,345.2656953406404L425.7171558390837,350.0696168123977L427.25491919880733,347.2997622510011L429.2926615253091,338.4077114354877L444.65728289668914,340.54618871206185L448.98882851260714,330.6809367373062L454.9855846138671,334.6924310764007L470.64620900631417,341.6879097513447L485.2158282651799,346.56474197038915L500.4138213718543,353.82246278363164Z"></path><path d="M605.3148763541831,285.0653509029362L613.763816423947,282.6239076385391L620.5352953051915,278.95144162655924L624.3830537983449,277.7446631867497L629.0904090425465,278.5626584943384L632.8279496583855,282.6073194098717L636.7643704306101,288.50097821300733L643.9010246992111,291.22821948947967L646.2934477344388,295.2148978082114L650.1449456023984,295.6051786476164L659.9535497567849,290.793831015093L671.164837357006,283.23006714184885L675.4380722487113,282.25314758211607L681.3233372978866,282.77190552910906L689.9869428208331,285.271320426662L701.3198468511691,290.6905646214436L709.1083902412793,297.4389986786118L713.3748976510251,303.98456280946266L716.1712562645553,310.641945196694L723.0758528962033,332.14097196262446L728.6140438620932,344.30869940132834L730.9700776033569,359.7337593935081L732.3088957376312,363.4859921639436L735.8663823038805,367.49136767032905L742.0739480685443,372.1881260028458L746.0037753415527,376.82555903989123L745.5341869860422,381.8676893954689L741.2269208045909,392.74694206152344L741.284447311773,399.5059625690337L735.427955355728,412.52510625420837L726.7592498214217,409.7701244050113L722.9371611811221,407.13106520770816L719.949046186055,414.2551488931349L717.347402505111,412.0820800777001L714.7600967012113,416.2826157712261L708.4216354732634,411.8235851408681L703.5466713350033,410.04686596093234L700.3725471879588,407.3688767843705L691.1185474102385,402.3946628710546L685.7313125851797,398.83155381676625L679.7402072793338,413.43704936504946L679.7118136654608,421.2900612363301L673.7330795495072,432.06862426685984L668.6465529719135,435.88466106553096L664.712170967483,436.8576452625275L662.1877677148441,439.31876795421704L660.044678311795,436.7029761466838L650.8872924607713,431.5302678303851L643.7643645894714,424.46690118158585L638.395448064548,420.4011410132516L646.5092608240666,420.7984787983878L660.2309707348468,422.82318895406206L653.4401077242801,408.16190790291876L650.0164892716566,402.5085326136905L638.196631921106,371.82476300094277L636.9577088176738,367.36967354494845L636.5263144124765,358.3167187550862L634.8474234475289,353.65831583281397L628.0513641422149,349.2125808179844L616.581622062251,343.49525654519675L615.7723549072398,342.04427211071015L614.053778690286,314.9217258214485L612.2964348180685,305.7067399150983L600.9607243904611,298.950374915672L600.6541888405336,297.30549513708684Z"></path><path d="M603.1030889151152,277.28508627490373L602.5472270468017,281.14233396208147L605.3148763541831,285.0653509029362L600.6541888405336,297.30549513708684L600.9607243904611,298.950374915672L612.2964348180685,305.7067399150983L614.053778690286,314.9217258214485L615.7723549072398,342.04427211071015L616.581622062251,343.49525654519675L628.0513641422149,349.2125808179844L634.8474234475289,353.65831583281397L636.5263144124765,358.3167187550862L636.9577088176738,367.36967354494845L638.196631921106,371.82476300094277L650.0164892716566,402.5085326136905L653.4401077242801,408.16190790291876L660.2309707348468,422.82318895406206L646.5092608240666,420.7984787983878L638.395448064548,420.4011410132516L631.9711908964673,418.5309027461917L618.0988421955844,416.18721241343883L612.6354727325961,411.767604984605L606.71949798672,404.67831085063517L607.958478694316,392.2661277708539L604.7633188198088,388.39459157487727L595.5028518347535,384.415439303295L586.0630314758746,382.4065644183429L580.6374614797533,377.8905271240801L572.9603186636232,370.0283001451171L564.9402739248471,355.7440155328077L561.6910489246948,350.33241441697464L556.1910818422912,338.6059967158071L550.9440334265819,324.3075933022774L548.3664900338044,320.3117243622255L557.102770547499,296.86628807141096L561.0459189524408,301.1423625915486L566.3299024697626,297.2897940656403L577.9891796995653,290.3124128684867L581.9707983895205,292.8760344578186L589.5708937965101,280.71780366505845L592.7507980469381,282.48375280888285L597.4177026718389,275.2756682159379Z"></path><path d="M894.241716241464,731.4944856356014L898.5302772547584,737.2660396769352L906.3368853805587,742.0267615227785L908.4152455594158,744.7646621342865L916.8158427763265,762.1258329445845L920.807560455054,759.2994157926587L925.4916864867555,765.6598794327583L936.6384071951034,788.4846168467484L937.272297101561,794.7231663864222L936.437393947388,806.069815971161L937.0478361374699,823.1443967162631L939.4046047095908,830.2109184960136L945.4038086138899,839.3528304372448L946.9895812649047,843.9568417879927L949.4750250488287,866.789071697538L952.7910231683636,872.1238182017114L963.949815660133,882.3417366714566L968.309242332587,888.9081886594649L973.776475577848,894.4339761774754L980.8096557371318,896.0179144889407L983.5831183228875,897.8360656268196L986.6342073469423,909.4090839548735L988.7181338750524,928.5407386188162L989.4443458152236,938.3665446583473L971.3816564626759,934.549505930685L949.0811554348329,931.0423341923743L930.2720817996887,926.9753346191137L921.160321902018,923.9649957707152L920.534388694563,910.884317093587L920.6943231804762,902.5456731804588L922.4193231753306,892.6239703047613L918.5561647457071,891.7949396583717L898.4319394230843,892.0531327732315L891.8870729943737,891.4113197615952L866.8967962820316,880.0478495697607L856.7072395867435,869.3091546745272L853.1508717791876,866.2034491449303L848.3494054524926,863.93360355185L836.7577635205816,859.8518248779874L826.4513998969924,853.8612946533249L821.4304488886846,852.7055023000867L811.5856643688167,847.2203865292831L806.5609202266205,840.9008461689809L802.8527477469761,826.871771133563L806.6447405073559,821.9596347957558L807.9641173605341,814.2812463953451L810.642528572469,810.7549982098863L806.8019452759763,805.8387753513816L807.105599859613,802.4225557947066L814.2808829003479,797.5803140908829L804.2775666787056,787.2525981218496L822.1169625329785,768.9761108546809L831.2598453850951,777.0522087292047L841.9427380866837,768.1665032763267L842.4918755643303,760.7856283856963L841.4289416414686,756.8517327144218L855.3480332446052,745.3313284821343L856.5861844964093,742.3040433068818L874.9876944659045,730.0343541085022L878.1599937498104,727.9172813743062L880.5927978116088,729.6187776554143L885.0368375016842,725.3306218483485Z"></path><path d="M758.8338166605681,626.7518812787894L765.1130094558466,637.4996712772117L776.5380484567722,627.7004117565521L779.0073601122713,642.8024719371751L777.3692524232902,645.4956367475679L781.5130951416213,652.2491810500505L786.7619024470914,655.4017755837704L806.1014338005334,661.3211364499875L809.7775396419456,663.7191145081306L817.8600782740396,671.0434212016407L825.5698624888901,681.014596053632L831.8109040092677,687.7157921087637L834.4573417750653,692.2798810204549L837.1166748988908,700.8584150749375L839.1101074989419,703.8492328890134L850.5636291590054,710.7677464766311L864.6366625970695,716.1045739169931L871.7114647625713,724.0659867007926L874.9876944659045,730.0343541085022L856.5861844964093,742.3040433068818L855.3480332446052,745.3313284821343L841.4289416414686,756.8517327144218L842.4918755643303,760.7856283856963L841.9427380866837,768.1665032763267L831.2598453850951,777.0522087292047L822.1169625329785,768.9761108546809L804.2775666787056,787.2525981218496L814.2808829003479,797.5803140908829L807.105599859613,802.4225557947066L806.8019452759763,805.8387753513816L810.642528572469,810.7549982098863L807.9641173605341,814.2812463953451L806.6447405073559,821.9596347957558L802.8527477469761,826.871771133563L799.9273471845081,813.5305840102665L797.7303718019975,807.8703306726529L795.0762022499694,803.9881201917015L792.8615779528627,794.0382555094257L789.0412479762454,786.2972387517511L782.8023430153262,784.3540825239907L779.7139470257098,782.3804542547441L777.5796984413173,777.3696503769315L772.5650707803434,770.3950425739458L770.8929165709997,765.888830343727L764.9274806659669,757.0981277890678L759.8316624636063,751.0410724972317L753.7775035084924,755.8858878987958L750.9864770571003,760.9624587069848L745.8140970102977,762.9216634719633L743.5671694751363,758.1924825479509L731.2697252993239,742.0872024303826L728.6426945085404,744.2574505554512L724.5192899868125,741.7270571887784L717.6840460737003,732.4312052192108L713.5545858682599,729.0619483937044L712.4640528026503,725.4485230436258L705.3159718578681,719.5363048641884L699.7369762025774,713.9010077795538L696.890280453139,712.414363516582L694.7023784928024,707.3038883333502L693.7988180175889,700.1964076433505L686.2662749706069,694.6348834853561L689.8133861381793,690.1437855064287L693.7936393660493,688.7796149035275L698.4027284821495,685.3994407733262L704.6299865287729,682.5912093886582L704.7879488986218,675.6991628003598L702.9322769964347,670.0727572157339L704.6464266590774,662.6715590177046L703.351164494874,655.5697296907601L695.3817836680682,643.926816917723L693.8205660320818,636.684347555245L701.1319642042508,634.0396111705049L704.3111133413622,638.4854795919964L709.3976115691476,634.0536894091347L712.8644818358589,638.8467467238079L724.8500559622189,625.9996759772184L730.9359739312204,627.9150783889054L736.771957042627,621.7643749354465L747.5733937722398,632.144662735227Z"></path><path d="M1126.7463030619547,711.3009215384373L1125.6061094086617,713.1513297307247L1116.0157877865713,717.1187198550615L1115.060256673023,721.3614674944256L1115.473945464124,726.1219892028894L1111.5018140572356,734.9800213204289L1111.7770055854926,740.7922266763926L1113.0853000307688,743.672356832918L1111.0844597062096,745.8543699832808L1105.0523565408075,746.3308246394445L1099.4517535644118,750.4084356539242L1098.7237635834608,756.023547092278L1100.7631363209803,763.4773185821541L1089.0305344694061,762.9878892484412L1086.1404641577974,763.8706394570181L1083.764020117349,768.9418995437736L1082.62624282646,779.6559624683869L1088.3179503059946,783.8524078940391L1092.1647314871661,794.5701575600251L1089.5628131304402,798.1314602153143L1089.5422751067672,810.633972587384L1083.1896946566412,818.4469863903942L1083.2635644830298,819.9172162640898L1089.8905955982627,828.9004894141108L1089.7958938459633,831.3560578089091L1086.6865774879698,834.2004739008844L1085.3381040077657,841.5787052193191L1087.5918167799246,845.5375711395172L1087.760869323858,852.3976769587316L1086.5748728329781,856.0779854207358L1089.5091199442977,859.9787446487753L1088.5804526900174,864.5915724558581L1089.8695149333216,869.2405433381209L1084.9692282264587,875.8632887187996L1077.9526878519682,879.6761977430724L1071.70693808957,881.6585395920556L1069.135348215932,883.7866962465341L1066.9601581696188,891.1809633522644L1067.7658368216362,895.3828059607476L1065.8363733565202,898.0214337548823L1063.658720201347,905.1639196997276L1062.0434004946146,907.1513015063247L1060.9795488246018,915.9618177204102L1057.8934760802658,930.9913672845287L1054.9661533910548,938.9295042634185L1052.8206740149762,947.0243806628569L1049.7125316074817,955.1297135478817L1040.7137152327923,950.3976485866879L1021.6630386962788,946.6530486879929L1000.3285906043602,939.7528869876405L989.4443458152236,938.3665446583473L988.7181338750524,928.5407386188162L986.6342073469423,909.4090839548735L983.5831183228875,897.8360656268196L980.8096557371318,896.0179144889407L973.776475577848,894.4339761774754L968.309242332587,888.9081886594649L963.949815660133,882.3417366714566L952.7910231683636,872.1238182017114L949.4750250488287,866.789071697538L946.9895812649047,843.9568417879927L945.4038086138899,839.3528304372448L939.4046047095908,830.2109184960136L937.0478361374699,823.1443967162631L936.437393947388,806.069815971161L937.272297101561,794.7231663864222L936.6384071951034,788.4846168467484L925.4916864867555,765.6598794327583L920.807560455054,759.2994157926587L916.8158427763265,762.1258329445845L908.4152455594158,744.7646621342865L906.3368853805587,742.0267615227785L898.5302772547584,737.2660396769352L894.241716241464,731.4944856356014L890.1351188886911,719.2629200173833L887.8412357525667,707.3125448285136L885.9143398229498,702.4457735005417L881.1448091678321,683.2818726080877L881.2842542617582,670.9088492629235L879.2224256711779,665.2372663250426L874.483836863772,657.7293600786361L873.0307129864814,650.5852285317669L873.4626117302105,642.3559629765223L871.7165806073463,638.7145202816755L866.5208524449263,632.9416932002641L861.2990958356531,629.3458543442539L849.8170719883638,625.7328961564053L845.0701833441854,622.2859053740976L837.331571900053,614.2357547294232L832.2560328040272,607.4683873066679L821.4625769765116,600.8080874897714L817.5602708091028,599.2799789599085L814.4188307364238,596.0602321785118L814.0289133465849,592.7572742593766L816.2364823303651,586.822514401254L815.3867895884905,582.6755595873983L810.9913511407794,575.3304046172998L810.5680362585699,564.5629445533268L823.3316656912211,550.1994437424582L831.8800109296571,545.2811719171004L836.4828489301726,544.7341712417838L849.043695066357,545.0891497226548L869.5024035724346,545.1402248715458L871.0275160903111,546.3800986864371L872.8476910366444,552.2094489282463L883.1345348894829,555.0377425646584L885.8229639617493,558.9075463352492L888.5319965034723,566.5266372274491L895.1141735923011,565.7565107001865L897.2674987567589,561.2619875206146L906.1415198367322,557.1559750944725L909.1190007418627,559.2106550092867L916.3546659974381,566.8955953698314L923.3077324528713,575.2865394549735L935.2508399620419,581.2198072699248L937.5160560151562,584.1428508824029L938.0701894544763,593.2436624133552L936.7773744150763,601.3878707468102L933.7720282870578,615.223987331934L933.1948916035471,623.3517061520834L934.0374477531295,626.4186841949995L950.4012034076732,632.8376672940212L962.2174740647897,639.5990992809238L972.1672258049948,649.73602549301L974.0726557096932,651.0468490375206L989.147008245578,657.663942101557L1012.6151575307595,667.4895041651907L1025.6063011789229,671.9600334388961L1034.5563287956174,675.9591049167211L1042.945034506265,678.9895321138902L1058.494304544176,682.4315514478658L1064.624346382916,685.6458954306145L1072.0282541794004,696.9487366195244L1083.7162916092202,709.433335382113L1088.5636848789873,712.845232292806L1091.2999746324494,713.4973693505744L1101.7628777861828,713.2378196172067L1115.2859264969593,711.2944969759556L1123.2516258549877,710.7416306347004Z"></path><path d="M633.1627322479617,524.98817987644L646.20685852936,537.7625873394136L653.5984883282799,543.8282898558246L658.3319307545898,549.740382004733L660.753897000337,556.792968489608L661.8701472689863,576.8449921113206L663.129420202109,580.3231624289474L670.065664484282,584.3674285838206L671.6523165800609,591.6501414644008L675.1346137756482,598.2765399004275L678.3587188774254,608.0781828002655L681.0056246399181,614.2700106562406L683.6532810671488,618.0988912370813L693.2150637076702,634.9472084651352L693.8205660320818,636.684347555245L695.3817836680682,643.926816917723L703.351164494874,655.5697296907601L704.6464266590774,662.6715590177046L702.9322769964347,670.0727572157339L704.7879488986218,675.6991628003598L704.6299865287729,682.5912093886582L698.4027284821495,685.3994407733262L693.7936393660493,688.7796149035275L689.8133861381793,690.1437855064287L686.2662749706069,694.6348834853561L682.9795657434734,691.5275651967677L674.759086061269,686.1699673949042L670.6329032657668,681.8167764508689L669.9614786910824,679.6463731481927L665.8664723070106,677.5302784998785L663.8924938814016,678.4360973807925L659.7516900886549,673.3071026186517L656.1226777514676,665.6023815250956L655.6139298204798,661.9251480404055L646.3217636879999,653.0206519647327L648.0195367810084,648.5956538184255L640.7645560083911,641.7713721203909L636.6914216689765,635.0296800991346L635.3136664592894,628.2003948178026L632.700381367933,620.9999791711743L630.4633768420899,619.4466476763191L621.7162368730642,608.233121381345L619.7780304560438,601.9060990402941L620.3967718792846,593.1468575140752L615.7515033023665,589.4352357221651L611.0458389386768,584.2541965116106L608.9248674536357,579.8513525918534L607.7791497496655,572.9012096188962L591.9113982934505,556.0368120465428L580.4799551182659,545.85779119574L564.0445225945441,533.2018000718963L579.9405799763044,527.2091874275357L585.0430179166142,520.9258722328232L597.1447078710189,494.7421246151789L601.8262187904911,490.4249566834769Z"></path><path d="M885.2699694880284,460.6660958241846L893.6920819650404,465.6377648723137L903.9387689501746,473.7351315972628L906.5818775827065,477.5135072579433L913.0629397726152,482.68254296144005L915.8604282283923,495.3197835267638L919.0722759164637,502.8206768966047L924.4521180965239,511.7379771817068L928.5378869916312,515.1688517415314L934.5019785464974,515.1171292894578L940.318866756279,516.6595580779831L944.6947816633619,521.4750360392791L948.741522703669,528.722191201814L951.2303832336329,530.8373833448859L956.390490334481,532.428374874813L966.7237481275806,533.7833950056229L972.2069877369795,532.8296166311193L986.4906846415251,535.3976157680736L1002.2319126758957,537.6380289569206L1009.5049893239047,540.8741530251282L1014.8685748928692,546.6269390509406L1021.0820160638541,556.3333297043573L1026.9182475372218,563.7808113411011L1038.2483878456987,574.423338342458L1042.3787885686615,577.0533700127562L1056.036805830081,578.6834945940354L1066.66065478581,585.217988690536L1074.3285333469976,591.4836759046593L1084.6255582972663,598.1229402831814L1100.1349771319656,611.7298025167256L1104.5036677579628,616.3852264940215L1116.0368185376283,631.8065369326796L1122.9555619873572,642.3648126809276L1130.8632915717317,651.7429722661327L1134.8111886323895,657.2001101010537L1143.2798808502266,666.4414408340817L1149.5420396787813,666.8642076675897L1148.229219907429,678.7831922572805L1141.6260426790686,682.8536283266149L1137.1532944365172,687.6112648031558L1135.624835519353,692.8290728123102L1130.5779560420197,698.2318740139308L1127.7229961194098,702.5639920315007L1126.7463030619547,711.3009215384373L1123.2516258549877,710.7416306347004L1115.2859264969593,711.2944969759556L1101.7628777861828,713.2378196172067L1091.2999746324494,713.4973693505744L1088.5636848789873,712.845232292806L1083.7162916092202,709.433335382113L1072.0282541794004,696.9487366195244L1064.624346382916,685.6458954306145L1058.494304544176,682.4315514478658L1042.945034506265,678.9895321138902L1034.5563287956174,675.9591049167211L1025.6063011789229,671.9600334388961L1012.6151575307595,667.4895041651907L989.147008245578,657.663942101557L974.0726557096932,651.0468490375206L972.1672258049948,649.73602549301L962.2174740647897,639.5990992809238L950.4012034076732,632.8376672940212L934.0374477531295,626.4186841949995L933.1948916035471,623.3517061520834L933.7720282870578,615.223987331934L936.7773744150763,601.3878707468102L938.0701894544763,593.2436624133552L937.5160560151562,584.1428508824029L935.2508399620419,581.2198072699248L923.3077324528713,575.2865394549735L916.3546659974381,566.8955953698314L909.1190007418627,559.2106550092867L906.1415198367322,557.1559750944725L897.2674987567589,561.2619875206146L895.1141735923011,565.7565107001865L888.5319965034723,566.5266372274491L885.8229639617493,558.9075463352492L883.1345348894829,555.0377425646584L872.8476910366444,552.2094489282463L871.0275160903111,546.3800986864371L869.5024035724346,545.1402248715458L849.043695066357,545.0891497226548L836.4828489301726,544.7341712417838L831.8800109296571,545.2811719171004L829.6848921530182,540.9700171539444L791.2303216250148,488.3830636262137L781.792095788056,474.8188756573072L785.3164023855934,473.91245567589067L796.0809443516191,480.7212900775485L813.2170028805267,483.4557855006424L820.2917917757295,482.2397750444361L822.9620987342205,482.93357034999644L826.8773340380285,490.48190027385135L837.5565742991166,496.26288182649296L840.1846380456118,498.84611019230215L845.4601471794304,506.4168911096349L848.1294192973292,505.9392305589863L861.9614976558369,494.25102790558594L869.2578863790259,484.2444123979658L877.0746823881054,471.91458123142365Z"></path><path d="M741.284447311773,399.5059625690337L749.3485439150827,401.4167889751552L765.3384702006588,402.3883099343511L765.8333758471999,404.8479050852184L762.3155192658305,417.3757199480606L760.0349813136272,439.84751747502014L750.5512034136336,439.9484200431034L753.5426300494,444.5874515706091L754.8929802665953,455.3749517034739L760.7230940035079,457.8877821422939L763.5650705025764,468.7200364294986L765.846522507607,462.7949030189484L772.3119278040249,464.27111282976693L775.4693016324891,467.6421539322182L773.0249585511629,471.0819722767337L772.6041957479902,474.3881523733435L773.6412395796506,489.4088762710453L776.6241678553633,492.44180717878044L772.2014500289224,498.4061185932369L770.9467054376146,503.35983487716294L771.4115553164156,506.34538260955014L757.3942629556404,520.8598537220387L744.2316495721461,508.37571283368743L739.6140495797154,514.3994948875043L722.9245434392942,527.8894746569276L716.1184524757555,518.0315782975522L709.8637926790398,512.1683046857361L705.7912869345164,500.3866533963301L706.7225873209536,494.6535898289003L704.9490653271787,491.2384324980958L696.0930344141088,484.65948814491276L692.4989632725483,478.33900462349993L682.1248267492047,468.5958013407362L677.8931576164905,463.6282429336861L674.9496980486438,457.1866782156867L674.8467924419092,450.72970168004395L666.0646218546899,443.7689947099716L662.1877677148441,439.31876795421704L664.712170967483,436.8576452625275L668.6465529719135,435.88466106553096L673.7330795495072,432.06862426685984L679.7118136654608,421.2900612363301L679.7402072793338,413.43704936504946L685.7313125851797,398.83155381676625L691.1185474102385,402.3946628710546L700.3725471879588,407.3688767843705L703.5466713350033,410.04686596093234L708.4216354732634,411.8235851408681L714.7600967012113,416.2826157712261L717.347402505111,412.0820800777001L719.949046186055,414.2551488931349L722.9371611811221,407.13106520770816L726.7592498214217,409.7701244050113L735.427955355728,412.52510625420837Z"></path><path d="M503.12983149127103,199.5302063956624L493.1892017297214,220.42264336859807L492.8838150978554,222.64504637965L498.60711360385176,225.30357301153708L496.9569728861097,229.18913207750302L492.50569964107126,239.75424874163582L486.7922669928521,244.46805619465886L484.1580369535368,244.86704817874124L481.0258692789357,252.22113731093123L473.0827096167486,270.04006551543716L463.42325023631565,270.7865521312633L459.184081996209,274.2092203469656L442.8202336017275,267.6462443746859L450.30594937561546,250.36539405974327L450.198408889235,246.47334250580752L441.7039800907951,241.76491502774297L441.0102019784972,238.75286501678056L448.67036715033464,218.15647570890724L450.65216678439174,221.08325710357167L456.4206629063701,225.54399252164876L459.2575715892017,220.08531311227125L461.4578821369214,213.76906597078778L451.9652731445385,210.1439352176676L452.6991094283294,208.40665941991028L459.4330504745012,196.53282562701497L464.63157410139684,189.85971641883953L470.9484105154406,187.52785419370048L476.8348194313003,186.76947944512358L482.31664110173006,173.4897055584879L489.2317391227698,180.56032029233756L490.0433369874954,178.52870780072408L495.3993497097399,181.28717921694624L497.6484014393063,186.19433856679825L497.90809207281563,189.66881293209735L492.1025598155102,194.5510891463491L491.5826317606261,197.78858391437097L493.63769147580024,200.89370614447398L498.5435329207685,196.9932275696774Z"></path><path d="M530.0961026269943,182.3224362092733L533.0660544162383,195.9525508665829L529.7571831628447,201.69826727779582L524.5444098749431,201.83828935405472L521.0262685901253,199.29889663527138L519.0117489917902,201.7171646435163L514.1435357090086,211.35873230011202L506.1176581636537,207.56752902106382L498.60711360385176,225.30357301153708L492.8838150978554,222.64504637965L493.1892017297214,220.42264336859807L503.12983149127103,199.5302063956624L513.5535659462912,177.64076861939975L516.27793976455,173.89258838124806L520.6041550276568,168.58912215635064L530.5743346348172,173.82674789894372L526.3216938631376,181.28575740687666Z"></path><path d="M452.6991094283294,208.40665941991028L451.9652731445385,210.1439352176676L461.4578821369214,213.76906597078778L459.2575715892017,220.08531311227125L456.4206629063701,225.54399252164876L450.65216678439174,221.08325710357167L448.67036715033464,218.15647570890724L441.0102019784972,238.75286501678056L441.7039800907951,241.76491502774297L450.198408889235,246.47334250580752L450.30594937561546,250.36539405974327L442.8202336017275,267.6462443746859L430.85940253338777,260.77848662401084L421.7412524098763,252.92558320614626L416.55605964153074,247.79673611439648L405.34689472732134,238.3985689757974L387.42933888779953,215.33512890405837L381.7498095787596,206.34692048837314L377.5765699977055,196.68335845967522L374.6532458271831,186.15085713585722L370.9323277299991,169.8294272129715L365.54281195800286,157.42795301281149L369.985982155893,153.30378586778534L377.8950427452801,140.37197302369168L393.8146558139706,128.74898453461356L413.5339137335541,143.56192926396034L411.6540056754602,147.22780544977286L403.6681205542991,154.25256869365694L441.03124509495683,174.81799905878142L430.9310564059997,193.31597761038574L421.03055727353785,188.12612910044845L415.1738514880417,198.711671504454L413.9990231329575,202.9317524082726L424.2907352228649,208.95608186282334L428.29933501640335,210.50128523077L433.05532113462687,202.81940970171127L439.3509254842065,205.04289737532963Z"></path><path d="M639.2703698059777,115.92654167779256L647.9085603975691,116.03142548364121L654.5268355170265,119.90218320142594L665.0875420796219,123.86119997565402L676.3174078776501,129.33096240254235L682.9886935277609,131.25851517278352L704.416637377697,140.62245816990617L710.7179189119488,144.87114046455827L716.3399993741186,147.48148582037538L725.3551283051493,158.90777427327703L730.7624989796896,163.56457280632458L730.9001516319113,170.77920607035048L732.900260518305,174.66072141262703L743.7138826564187,174.92874588930863L745.7374627835816,175.64387657275074L746.9448692032602,186.50276511744596L748.167757215444,189.85486685257638L748.7726877953392,196.46043752570404L751.9049057605444,200.87581341929035L746.6319921348477,205.35820505631273L739.4002524123061,206.1845441608457L729.9929598275339,208.51017522072652L723.2309346770635,212.21323509709327L709.619658810203,216.6206456212385L697.1690544524463,222.6350942522986L696.2440823145444,225.49050439413986L689.905602840241,230.16284032416297L685.6743209528504,231.25486219016602L682.8176718085306,229.0524381226569L673.0248858999694,231.52884683781303L666.5525995355565,230.14380999174318L664.7077989261597,235.1917339032516L679.0949857736705,254.12934843226685L679.8313926092815,256.8280776408792L678.4934573881328,261.03037530736765L673.513747549383,266.66830024454976L673.157354019233,270.84762284255703L675.4380722487113,282.25314758211607L671.164837357006,283.23006714184885L659.9535497567849,290.793831015093L650.1449456023984,295.6051786476164L646.2934477344388,295.2148978082114L643.9010246992111,291.22821948947967L636.7643704306101,288.50097821300733L632.8279496583855,282.6073194098717L629.0904090425465,278.5626584943384L624.3830537983449,277.7446631867497L620.5352953051915,278.95144162655924L613.763816423947,282.6239076385391L605.3148763541831,285.0653509029362L602.5472270468017,281.14233396208147L603.1030889151152,277.28508627490373L608.7284342709463,266.8397083360469L609.7598834035452,261.7238129937614L607.3060818413505,256.0732417178806L601.7259132915642,250.7107132547244L587.8056607064791,244.01221570244525L593.7158429836854,235.22684564601514L596.9700803824235,232.44744661037112L614.902586483513,223.59596380090807L618.1757097045192,221.0941329075722L621.8915145957144,215.63708494737512L624.305204378441,210.32341046482907L621.6342880515149,209.56578088598326L624.1203017708613,205.40852133452427L629.3747625858523,204.5774024092825L632.8952758235391,193.58020183103508L633.3371836061124,183.97410817578202L632.3792093639495,180.21834938044776L632.7585772606544,173.47559068334522L635.6737339938991,156.5127087305591L637.7153679241892,149.03615976247238L638.1454880994279,144.56749523145845L637.2663492598804,136.54189345013583L637.7631513222586,126.62950516521232L640.1424008551985,118.45917483547237Z"></path><path d="M547.1389956423081,242.09230467386078L556.5668321321718,248.05400380454375L561.6134854147676,248.69739201976336L567.5588387014577,248.07115170921315L577.2795171418693,245.9085619248508L583.1605727081187,243.31545879904297L587.8056607064791,244.01221570244525L601.7259132915642,250.7107132547244L607.3060818413505,256.0732417178806L609.7598834035452,261.7238129937614L608.7284342709463,266.8397083360469L603.1030889151152,277.28508627490373L597.4177026718389,275.2756682159379L592.7507980469381,282.48375280888285L589.5708937965101,280.71780366505845L581.9707983895205,292.8760344578186L577.9891796995653,290.3124128684867L566.3299024697626,297.2897940656403L561.0459189524408,301.1423625915486L557.102770547499,296.86628807141096L548.3664900338044,320.3117243622255L546.063528800616,316.80400100103L541.4036622983404,314.55421299138106L536.1661329083145,313.4275482390658L531.6995152953314,311.1482282904908L527.6884247971466,306.72970548796L511.03102977992967,295.84840407958836L502.97582617087755,292.94763244193746L511.09639536519535,273.9102753116458L496.6015453580767,267.80313226309954L498.28063718404155,263.31044043431757L494.5417462615296,257.4567391393357L489.56314779270906,254.78163794218563L485.3250610646792,254.58709516123054L481.0258692789357,252.22113731093123L484.1580369535368,244.86704817874124L486.7922669928521,244.46805619465886L492.50569964107126,239.75424874163582L496.9569728861097,229.18913207750302L519.2689584959298,238.6907571577176L517.4127793144435,242.96203472075285L532.3161221195478,249.28603834091336L535.9944111165823,250.06874166917987L541.1723848067923,246.6875912330288L540.457344696857,245.16903826672933Z"></path><path d="M442.8202336017275,267.6462443746859L459.184081996209,274.2092203469656L463.42325023631565,270.7865521312633L473.0827096167486,270.04006551543716L481.0258692789357,252.22113731093123L485.3250610646792,254.58709516123054L489.56314779270906,254.78163794218563L494.5417462615296,257.4567391393357L498.28063718404155,263.31044043431757L496.6015453580767,267.80313226309954L511.09639536519535,273.9102753116458L502.97582617087755,292.94763244193746L511.03102977992967,295.84840407958836L527.6884247971466,306.72970548796L531.6995152953314,311.1482282904908L536.1661329083145,313.4275482390658L541.4036622983404,314.55421299138106L546.063528800616,316.80400100103L548.3664900338044,320.3117243622255L550.9440334265819,324.3075933022774L556.1910818422912,338.6059967158071L561.6910489246948,350.33241441697464L564.9402739248471,355.7440155328077L549.1426002922235,353.86128161736997L538.7425444229739,349.62851446375134L533.3419223417295,349.43575308832806L525.318800526089,352.69630544944084L520.2006973230746,355.9375746570877L513.0311291661346,358.97826424852246L509.6128792932723,358.6433110827347L504.39970307727344,355.09354475548025L500.4138213718543,353.82246278363164L485.2158282651799,346.56474197038915L470.64620900631417,341.6879097513447L454.9855846138671,334.6924310764007L448.98882851260714,330.6809367373062L444.65728289668914,340.54618871206185L429.2926615253091,338.4077114354877L427.25491919880733,347.2997622510011L425.7171558390837,350.0696168123977L411.2239051038632,345.2656953406404L404.9623349845642,341.3603305661818L398.24204523907974,336.13903908384964L395.52107587689534,333.07035576572525L386.5259981985437,328.56690746042295L378.3725697043119,323.0473907547712L371.61468957120087,316.96192179914215L364.2611358000431,313.7144538849534L354.19211990351323,306.7109082569077L352.0455473285401,303.9620203519298L345.9225638943026,288.5778069047956L341.0913242417155,285.60384305394837L333.96120850695297,275.81889057240915L332.344051496475,268.79529717584956L327.79878720268607,260.21584250824526L322.91048391221557,259.23070496774744L317.9109055858571,254.81127825117437L313.5237144974526,253.52885986078763L310.4205513887573,251.07003133374383L276.98660727974493,241.57791393445223L284.0929303509183,234.58349686764996L303.9786133370362,218.89804723954876L322.4994838972343,196.7536402575788L348.6014431784861,180.73686008318327L352.50556365342345,174.7917452523543L357.8631263367133,163.07401391660096L365.54281195800286,157.42795301281149L370.9323277299991,169.8294272129715L374.6532458271831,186.15085713585722L377.5765699977055,196.68335845967522L381.7498095787596,206.34692048837314L387.42933888779953,215.33512890405837L405.34689472732134,238.3985689757974L416.55605964153074,247.79673611439648L421.7412524098763,252.92558320614626L430.85940253338777,260.77848662401084Z"></path><path d="M639.2703698059777,115.92654167779256L640.1424008551985,118.45917483547237L637.7631513222586,126.62950516521232L637.2663492598804,136.54189345013583L638.1454880994279,144.56749523145845L637.7153679241892,149.03615976247238L635.6737339938991,156.5127087305591L632.7585772606544,173.47559068334522L632.3792093639495,180.21834938044776L633.3371836061124,183.97410817578202L632.8952758235391,193.58020183103508L629.3747625858523,204.5774024092825L624.1203017708613,205.40852133452427L621.6342880515149,209.56578088598326L624.305204378441,210.32341046482907L621.8915145957144,215.63708494737512L618.1757097045192,221.0941329075722L614.902586483513,223.59596380090807L596.9700803824235,232.44744661037112L593.7158429836854,235.22684564601514L587.8056607064791,244.01221570244525L583.1605727081187,243.31545879904297L577.2795171418693,245.9085619248508L567.5588387014577,248.07115170921315L561.6134854147676,248.69739201976336L556.5668321321718,248.05400380454375L547.1389956423081,242.09230467386078L543.6328021108638,235.8015363937884L541.8967997811269,223.69936369513744L538.8205309169134,222.8642698477197L514.1435357090086,211.35873230011202L519.0117489917902,201.7171646435163L521.0262685901253,199.29889663527138L524.5444098749431,201.83828935405472L529.7571831628447,201.69826727779582L533.0660544162383,195.9525508665829L530.0961026269943,182.3224362092733L534.5782115588663,172.43854741120595L538.8760616332293,169.24666392651852L550.247691548313,168.1995910940459L559.8717013983987,160.73653115614434L567.6524851801805,160.32110711175483L573.5251413844526,154.15826026379364L580.2169230616419,152.546903650451L585.1447454262525,149.48962765332544L587.9232204857981,143.6902819791867L593.8022656341782,138.41602598081226L597.5806407212513,137.42084616204374L601.3264265097678,134.85954153069179L606.8947003112407,128.8546721765597L612.11943944823,117.05263299372746L620.3072867791634,113.34966767195147L632.9107329117833,115.54469976978726Z"></path><path d="M631.9711908964673,418.5309027461917L638.395448064548,420.4011410132516L643.7643645894714,424.46690118158585L650.8872924607713,431.5302678303851L660.044678311795,436.7029761466838L662.1877677148441,439.31876795421704L666.0646218546899,443.7689947099716L674.8467924419092,450.72970168004395L674.9496980486438,457.1866782156867L677.8931576164905,463.6282429336861L682.1248267492047,468.5958013407362L692.4989632725483,478.33900462349993L696.0930344141088,484.65948814491276L704.9490653271787,491.2384324980958L706.7225873209536,494.6535898289003L705.7912869345164,500.3866533963301L709.8637926790398,512.1683046857361L716.1184524757555,518.0315782975522L722.9245434392942,527.8894746569276L724.6004909331677,531.961832842353L713.4286331357434,543.5800620476075L722.4640384586528,552.54554930827L728.0431138850981,566.4363830164075L744.8888987530954,582.79736769796L748.6410101508955,584.7508854739426L754.2136268147733,594.2814491105382L757.2797887731576,598.342324788362L770.57823605265,611.6502194220666L765.6633082923945,616.3502070668328L768.1632194876438,618.7789681018621L757.849696802441,624.6893540411547L758.8338166605681,626.7518812787894L747.5733937722398,632.144662735227L736.771957042627,621.7643749354465L730.9359739312204,627.9150783889054L724.8500559622189,625.9996759772184L712.8644818358589,638.8467467238079L709.3976115691476,634.0536894091347L704.3111133413622,638.4854795919964L701.1319642042508,634.0396111705049L693.8205660320818,636.684347555245L693.2150637076702,634.9472084651352L683.6532810671488,618.0988912370813L681.0056246399181,614.2700106562406L678.3587188774254,608.0781828002655L675.1346137756482,598.2765399004275L671.6523165800609,591.6501414644008L670.065664484282,584.3674285838206L663.129420202109,580.3231624289474L661.8701472689863,576.8449921113206L660.753897000337,556.792968489608L658.3319307545898,549.740382004733L653.5984883282799,543.8282898558246L646.20685852936,537.7625873394136L633.1627322479617,524.98817987644L640.3366180086741,517.6519934908138L629.9884750982746,504.97498073469615L632.5669660206186,502.3529902061855L630.1810046886094,497.34865572603303L632.4651502949419,494.6675232817943L629.35510174511,489.625913568394L633.6426073338371,476.6684101190476L617.6375281168148,460.9546404326393L617.262003418291,455.43975335301366L614.9292242234806,448.04949657194084L628.5585017177509,433.8875744198449L626.6289305839455,430.6478687629278Z"></path><path d="M771.4115553164156,506.34538260955014L772.8324909381336,509.38705235766247L779.9821008081781,515.9337398691277L781.1426146597369,519.9645947548561L781.6026143969502,534.9328646917129L784.6923622769536,537.6604424039833L787.6078936639242,543.5483469267492L790.530670217122,546.1226127927075L795.9170844834298,548.2375243797433L800.4627860113978,553.1495574766013L804.7321051717736,559.1765201622329L810.5680362585699,564.5629445533268L810.9913511407794,575.3304046172998L815.3867895884905,582.6755595873983L816.2364823303651,586.822514401254L814.0289133465849,592.7572742593766L814.4188307364238,596.0602321785118L817.5602708091028,599.2799789599085L821.4625769765116,600.8080874897714L832.2560328040272,607.4683873066679L837.331571900053,614.2357547294232L845.0701833441854,622.2859053740976L849.8170719883638,625.7328961564053L861.2990958356531,629.3458543442539L866.5208524449263,632.9416932002641L871.7165806073463,638.7145202816755L873.4626117302105,642.3559629765223L873.0307129864814,650.5852285317669L874.483836863772,657.7293600786361L879.2224256711779,665.2372663250426L881.2842542617582,670.9088492629235L881.1448091678321,683.2818726080877L885.9143398229498,702.4457735005417L887.8412357525667,707.3125448285136L890.1351188886911,719.2629200173833L894.241716241464,731.4944856356014L885.0368375016842,725.3306218483485L880.5927978116088,729.6187776554143L878.1599937498104,727.9172813743062L874.9876944659045,730.0343541085022L871.7114647625713,724.0659867007926L864.6366625970695,716.1045739169931L850.5636291590054,710.7677464766311L839.1101074989419,703.8492328890134L837.1166748988908,700.8584150749375L834.4573417750653,692.2798810204549L831.8109040092677,687.7157921087637L825.5698624888901,681.014596053632L817.8600782740396,671.0434212016407L809.7775396419456,663.7191145081306L806.1014338005334,661.3211364499875L786.7619024470914,655.4017755837704L781.5130951416213,652.2491810500505L777.3692524232902,645.4956367475679L779.0073601122713,642.8024719371751L776.5380484567722,627.7004117565521L765.1130094558466,637.4996712772117L758.8338166605681,626.7518812787894L757.849696802441,624.6893540411547L768.1632194876438,618.7789681018621L765.6633082923945,616.3502070668328L770.57823605265,611.6502194220666L757.2797887731576,598.342324788362L754.2136268147733,594.2814491105382L748.6410101508955,584.7508854739426L744.8888987530954,582.79736769796L728.0431138850981,566.4363830164075L722.4640384586528,552.54554930827L713.4286331357434,543.5800620476075L724.6004909331677,531.961832842353L722.9245434392942,527.8894746569276L739.6140495797154,514.3994948875043L744.2316495721461,508.37571283368743L757.3942629556404,520.8598537220387Z"></path><path d="M436.3856352654984,60.35138796889805L458.26676639704965,85.34384543963824L467.09860171866603,91.92524823913118L468.3730987594463,93.5795819334162L464.32783484563697,100.23300826235209L460.01297191588674,112.83188485071878L483.3709481105907,125.32376962975832L474.8934679281665,137.85457480838522L479.4785985047929,142.17856782086892L488.8584624977084,147.9689186492178L498.2304074153071,156.20472811668878L506.43299313855823,165.99980586694437L511.8984880776843,164.11582919536158L511.3457727282075,172.83663743129L516.27793976455,173.89258838124806L513.5535659462912,177.64076861939975L503.12983149127103,199.5302063956624L498.5435329207685,196.9932275696774L493.63769147580024,200.89370614447398L491.5826317606261,197.78858391437097L492.1025598155102,194.5510891463491L497.90809207281563,189.66881293209735L497.6484014393063,186.19433856679825L495.3993497097399,181.28717921694624L490.0433369874954,178.52870780072408L489.2317391227698,180.56032029233756L482.31664110173006,173.4897055584879L476.8348194313003,186.76947944512358L470.9484105154406,187.52785419370048L464.63157410139684,189.85971641883953L459.4330504745012,196.53282562701497L452.6991094283294,208.40665941991028L439.3509254842065,205.04289737532963L433.05532113462687,202.81940970171127L428.29933501640335,210.50128523077L424.2907352228649,208.95608186282334L413.9990231329575,202.9317524082726L415.1738514880417,198.711671504454L421.03055727353785,188.12612910044845L430.9310564059997,193.31597761038574L441.03124509495683,174.81799905878142L403.6681205542991,154.25256869365694L411.6540056754602,147.22780544977286L413.5339137335541,143.56192926396034L393.8146558139706,128.74898453461356L396.92005108715966,126.48176397933275L404.6208368259249,116.29913263974595L410.9103081332287,105.91591148183215L409.64472859119996,85.89669173170114L410.8304561363766,78.22455995090422L416.14601266011596,72.38534692511894Z"></path></svg>